<?xml version="1.0" encoding="UTF-8"?>
<svg id="Layer_1" data-name="Layer 1" xmlns="http://www.w3.org/2000/svg" xmlns:xlink="http://www.w3.org/1999/xlink" viewBox="0 0 725.89 186.35">
  <defs>
    <linearGradient id="linear-gradient" x1="352.44" y1="86.5" x2="366.57" y2="-10.01" gradientTransform="translate(2.66 -17.63) rotate(2.83)" gradientUnits="userSpaceOnUse">
      <stop offset="0" stop-color="#455c00"/>
      <stop offset="1" stop-color="#6cbf00"/>
    </linearGradient>
    <linearGradient id="linear-gradient-2" x1="0" y1="86.42" x2="163" y2="86.42" gradientUnits="userSpaceOnUse">
      <stop offset="0" stop-color="#b11a00"/>
      <stop offset="1" stop-color="#5c1600"/>
    </linearGradient>
    <linearGradient id="linear-gradient-3" x1="163" y1="91.84" x2="88" y2="91.84" xlink:href="#linear-gradient-2"/>
    <linearGradient id="linear-gradient-4" x1="725.89" y1="86.42" x2="562.89" y2="86.42" xlink:href="#linear-gradient-2"/>
    <linearGradient id="linear-gradient-5" x1="562.89" y1="91.84" x2="637.89" y2="91.84" xlink:href="#linear-gradient-2"/>
    <linearGradient id="linear-gradient-6" x1="88" y1="121.41" x2="637.89" y2="121.41" gradientUnits="userSpaceOnUse">
      <stop offset="0" stop-color="#aa0600"/>
      <stop offset=".5" stop-color="#e92200"/>
      <stop offset="1" stop-color="#bf1100"/>
    </linearGradient>
    <linearGradient id="linear-gradient-7" x1="364.81" y1="105.72" x2="364.81" y2="165.13" gradientUnits="userSpaceOnUse">
      <stop offset="0" stop-color="#fffc94"/>
      <stop offset=".2" stop-color="#fff"/>
      <stop offset=".36" stop-color="#bf992e"/>
      <stop offset=".44" stop-color="#feff94"/>
      <stop offset="1" stop-color="#e9e400"/>
    </linearGradient>
  </defs>
  <g id="logo">
    <rect x="261.51" y="4.47" width="194" height="81.09" rx="5.6" ry="5.6" transform="translate(-1.78 17.74) rotate(-2.83)" style="fill: url(#linear-gradient); stroke-width: 0px;"/>
    <path d="M0,52.48S153,9.48,163,21.48v104.5s-107,10.5-157,27.5c58-25,105-73,105-73,0,0-50-37-111-28Z" style="fill: url(#linear-gradient-2); stroke-width: 0px;"/>
    <path d="M163,21.48c-2,8-75,20-75,35v105.72s4-25.72,75-36.22V21.48Z" style="fill: url(#linear-gradient-3); stroke-width: 0px;"/>
    <path d="M725.89,52.48s-153-43-163-31c0,77,0,104.5,0,104.5,0,0,107,10.5,157,27.5-58-25-105-73-105-73,0,0,50-37,111-28Z" style="fill: url(#linear-gradient-4); stroke-width: 0px;"/>
    <path d="M562.89,21.48c2,8,75,20,75,35s0,105.72,0,105.72c0,0-4-25.72-75-36.22,0-37.01,0-104.5,0-104.5Z" style="fill: url(#linear-gradient-5); stroke-width: 0px;"/>
    <path d="M461.89,74.48h-77.52s-.03,0-.17,0h-120.2c-130,0-176-9-176-18v105.72c0,24.72,146,24.15,178,24.15h193.89c32,0,178,.58,178-24.15V56.48c0,9-46,18-176,18Z" style="fill: url(#linear-gradient-6); stroke-width: 0px;"/>
    <path d="M160.27,122.11c0-.07,0-.1,0-.17,9.95-2.85,13.52-9.05,13.52-15.36,0-8.22-6.26-13.86-18.71-14.25-2.13-.07-7.81-.09-13.44-.51-3.93-.29-8.45-.85-10.97-1.33v1.78c6.13,1.01,7.29,1.94,7.28,8.42-.03,14.72-.05,29.45-.08,44.17-.01,6.48-1.19,7.37-7.2,6.92v1.78c2.46.12,6.84.47,11.01.78,7.3.53,12.7.88,15.31,1,10.3.45,21.45-5.53,21.45-17.04,0-7.22-4.09-14.03-18.16-16.18ZM146.23,101.29c.01-6.13,1.2-7.54,6.63-7.34,8.9.33,12.43,4.8,12.42,13.54,0,7.74-2.62,14.62-13.1,14.21-2.4-.09-3.6-.15-6-.29.02-8.05.03-12.07.05-20.12ZM152.81,153.16c-5.53-.21-6.7-1.49-6.68-7.7.02-9.01.03-13.51.06-22.51,2.99.17,4.49.24,7.48.34,11.3.4,15.86,5.55,15.85,14.6,0,10-5.03,15.72-16.7,15.28ZM230.29,137.73h-2.04c-1,11.79-5.87,15.79-13.75,15.79h-5.61c-6.05,0-7.22-.91-7.22-7.4v-35.28c0-6.53,1.17-7.4,7.22-7.66v-1.78c-2.74.17-7.22.26-11.31.26-4.61,0-8.92-.09-11.4-.26v1.78c6.05.26,7.22,1.13,7.22,7.66v35.28c0,6.48-1.17,7.4-7.22,7.66v1.78c8.48-.26,19.79-.26,24.93-.26,5.74,0,13.75,0,19.53.26-.44-4.18-.61-8.48-.61-10.53,0-2.83.09-5.44.26-7.31ZM282.49,148.08c-6.95-15.7-13.89-31.41-20.84-47.11h-1.44c-6.55,14.85-13.11,29.7-19.66,44.55-1.78,4.09-3.92,7.4-7.31,8.27v1.78c1.52-.17,5.7-.26,7.74-.26,3.22,0,6.31.09,8.09.26v-1.78c-4.87-.39-6.92-2.22-6.92-5.26,0-1.61.52-3.48,1.48-5.7,1.2-2.66,1.8-3.99,3-6.66h21.75c1.79,4.05,2.69,6.08,4.48,10.14.83,1.78,1.22,3.17,1.22,4.22,0,2.39-2.13,3.09-6.39,3.26v1.78c2.52-.17,6.79-.26,11.44-.26,3.35,0,7.09.09,9.53.26v-1.78c-1.87-.09-4.22-1.26-6.18-5.7ZM247.42,134.38c4.05-9.07,6.08-13.6,10.14-22.67,4.02,9.07,6.03,13.6,10.05,22.67h-20.19ZM336.6,135.94c-.91,6.35-1.78,9.18-4.13,12.31-3.35,4.57-8.66,6.91-13.62,6.79-13.08-.34-17.91-14.95-17.92-26.36-.01-11.19,4.13-26.43,17.31-26.75,4.92-.12,9.88,2.31,13.27,6.79,2.22,2.92,3.22,4.87,4.44,11.4h2.04c0-9.44.09-14.7.39-18.71h-2.09c-.3,3.61-1,5.39-2.26,5.39-.48,0-1.04-.3-1.74-.87-3.57-3-7.49-5.61-13.7-5.79-15.77-.45-25.98,14.62-26.54,28.89-.59,15.26,11.03,27.93,26.45,27.8,6.69-.06,10.7-2.7,14.44-5.79.7-.57,1.26-.87,1.78-.87,1.22,0,1.91,1.78,2.22,5.39h2.04c-.26-4.18-.35-9.7-.35-19.62h-2.04ZM401.9,153.78c-2.78-1.09-4.92-2.83-6.96-5.44-6.55-8.27-13.11-16.53-19.66-24.8,5.62-5.62,8.43-8.43,14.05-14.05,4.57-4.35,6.61-5.61,10.88-6.4v-1.7c-1.7.17-3.92.26-6.31.26-3.13,0-7.31-.09-10.53-.26v1.7c3.57.09,5.26,1.31,5.26,3.05,0,1.17-.78,2.57-2.31,4-4.25,4.33-6.37,6.5-10.62,10.83-4.79,4.61-8.09,5.74-11.96,6v-16.14c0-6.53,1.17-7.4,7.22-7.66v-1.78c-2.74.17-7.22.26-11.31.26-4.61,0-8.92-.09-11.4-.26v1.78c6.05.26,7.22,1.13,7.22,7.66v35.28c0,6.48-1.17,7.4-7.22,7.66v1.78c2.48-.17,6.79-.26,11.4-.26,4.09,0,8.57.09,11.31.26v-1.78c-6.05-.26-7.22-1.17-7.22-7.66v-17.66c4.83.17,6.83,1.61,9.18,4.83,4.75,6.59,7.13,9.89,11.88,16.49.7.91,1.13,1.7,1.13,2.26,0,1.09-1.39,1.61-5.35,1.74v1.78c5.26-.26,8.92-.26,11.35-.26,2.92,0,7.09.09,9.96.26v-1.78ZM405.81,101.4v1.78c6.05.26,7.22,1.13,7.22,7.66v31.8c0,12.31-.38,16.67-1.52,20.4-1.42,4.65-4.13,7.48-8.4,7.48-.87,0-1.87-.09-2.39-.17,1.35-.78,2.31-2.39,2.31-3.92,0-2.39-2.04-4.26-4.35-4.26-2.44,0-4.31,1.87-4.31,4.26,0,2.04,1.03,3.39,2.44,4.26,1.69,1.05,3.92,1.44,5.96,1.44,9.44,0,15.14-6.14,17.01-14.36,1.35-5.96,1.52-15.83,1.52-23.23v-23.71c0-6.53,1.17-7.4,7.22-7.66v-1.78c-2.78.17-7.22.26-11.31.26-4.66,0-8.92-.09-11.4-.26ZM479.55,148.08c-6.95-15.7-13.89-31.41-20.84-47.11h-1.44c-6.55,14.85-13.11,29.7-19.66,44.55-1.78,4.09-3.92,7.4-7.31,8.27v1.78c1.52-.17,5.7-.26,7.74-.26,3.22,0,6.31.09,8.09.26v-1.78c-4.87-.39-6.92-2.22-6.92-5.26,0-1.61.52-3.48,1.48-5.7,1.2-2.66,1.8-3.99,3-6.66h21.75c1.79,4.05,2.69,6.08,4.48,10.14.83,1.78,1.22,3.17,1.22,4.22,0,2.39-2.13,3.09-6.39,3.26v1.78c2.52-.17,6.79-.26,11.44-.26,3.35,0,7.09.09,9.53.26v-1.78c-1.87-.09-4.22-1.26-6.18-5.7ZM444.49,134.38c4.05-9.07,6.08-13.6,10.14-22.67,4.02,9.07,6.03,13.6,10.05,22.67h-20.19ZM533.67,135.94c-.91,6.35-1.78,9.18-4.13,12.31-3.35,4.57-8.66,6.91-13.62,6.79-13.08-.34-17.91-14.95-17.92-26.36-.01-11.19,4.13-26.43,17.31-26.75,4.92-.12,9.88,2.31,13.27,6.79,2.22,2.92,3.22,4.87,4.44,11.4h2.04c0-9.44.09-14.7.39-18.71h-2.09c-.3,3.61-1,5.39-2.26,5.39-.48,0-1.04-.3-1.74-.87-3.57-3-7.49-5.61-13.7-5.79-15.77-.45-25.98,14.62-26.54,28.89-.59,15.26,11.03,27.93,26.45,27.8,6.69-.06,10.7-2.7,14.44-5.79.7-.57,1.26-.87,1.78-.87,1.22,0,1.91,1.78,2.22,5.39h2.04c-.26-4.18-.35-9.7-.35-19.62h-2.04ZM592.13,146.35c-6.68-7.66-13.25-15.42-19.71-23.26,5.62-5.89,8.42-8.9,14.01-15.06,4.55-4.79,6.59-6.3,10.84-7.68,0-.68,0-1.02,0-1.7-1.69.41-3.91.78-6.3,1.05-3.13.35-7.31.65-10.53.71,0,.68,0,1.02,0,1.7,3.57-.17,5.27.88,5.27,2.62,0,1.18-.77,2.65-2.29,4.21-4.23,4.7-6.34,7-10.59,11.55-4.78,4.85-8.11,6.06-12,6.39,0-6.46-.01-9.69-.02-16.16,0-6.53,1.17-7.39,7.22-7.87,0-.71,0-1.07,0-1.79-2.74.27-7.22.48-11.32.53-4.61.06-8.92-.03-11.4-.2v1.78c6.05.26,7.22,1.11,7.22,7.64,0,11.76,0,23.52,0,35.29,0,6.48-1.19,7.4-7.23,7.67v1.78c2.48-.17,6.79-.25,11.44-.29,4.12-.03,8.64-.03,11.41.06,0-.71,0-1.07,0-1.79-6.1-.08-7.29-1.02-7.29-7.51,0-7.07-.01-10.61-.02-17.68,4.85.09,6.87,1.45,9.23,4.59,4.79,6.43,7.2,9.61,11.97,15.86.7.86,1.14,1.61,1.14,2.18,0,1.09-1.38,1.76-5.35,2.13,0,.72,0,1.07,0,1.79,5.28-.58,8.91-.95,11.33-1.22,2.89-.32,6.99-.81,9.78-1.11v-1.78c-2.71-.62-4.81-2.07-6.84-4.43Z" style="stroke-width: 0px;"/>
    <path d="M160.27,120.11c0-.07,0-.1,0-.17,9.95-2.85,13.52-9.05,13.52-15.36,0-8.22-6.26-13.86-18.71-14.25-2.13-.07-7.81-.09-13.44-.51-3.93-.29-8.45-.85-10.97-1.33v1.78c6.13,1.01,7.29,1.94,7.28,8.42-.03,14.72-.05,29.45-.08,44.17-.01,6.48-1.19,7.37-7.2,6.92v1.78c2.46.12,6.84.47,11.01.78,7.3.53,12.7.88,15.31,1,10.3.45,21.45-5.53,21.45-17.04,0-7.22-4.09-14.03-18.16-16.18ZM146.23,99.29c.01-6.13,1.2-7.54,6.63-7.34,8.9.33,12.43,4.8,12.42,13.54,0,7.74-2.62,14.62-13.1,14.21-2.4-.09-3.6-.15-6-.29.02-8.05.03-12.07.05-20.12ZM152.81,151.16c-5.53-.21-6.7-1.49-6.68-7.7.02-9.01.03-13.51.06-22.51,2.99.17,4.49.24,7.48.34,11.3.4,15.86,5.55,15.85,14.6,0,10-5.03,15.72-16.7,15.28ZM230.29,135.73h-2.04c-1,11.79-5.87,15.79-13.75,15.79h-5.61c-6.05,0-7.22-.91-7.22-7.4v-35.28c0-6.53,1.17-7.4,7.22-7.66v-1.78c-2.74.17-7.22.26-11.31.26-4.61,0-8.92-.09-11.4-.26v1.78c6.05.26,7.22,1.13,7.22,7.66v35.28c0,6.48-1.17,7.4-7.22,7.66v1.78c8.48-.26,19.79-.26,24.93-.26,5.74,0,13.75,0,19.53.26-.44-4.18-.61-8.48-.61-10.53,0-2.83.09-5.44.26-7.31ZM282.49,146.08c-6.95-15.7-13.89-31.41-20.84-47.11h-1.44c-6.55,14.85-13.11,29.7-19.66,44.55-1.78,4.09-3.92,7.4-7.31,8.27v1.78c1.52-.17,5.7-.26,7.74-.26,3.22,0,6.31.09,8.09.26v-1.78c-4.87-.39-6.92-2.22-6.92-5.26,0-1.61.52-3.48,1.48-5.7,1.2-2.66,1.8-3.99,3-6.66h21.75c1.79,4.05,2.69,6.08,4.48,10.14.83,1.78,1.22,3.17,1.22,4.22,0,2.39-2.13,3.09-6.39,3.26v1.78c2.52-.17,6.79-.26,11.44-.26,3.35,0,7.09.09,9.53.26v-1.78c-1.87-.09-4.22-1.26-6.18-5.7ZM247.42,132.38c4.05-9.07,6.08-13.6,10.14-22.67,4.02,9.07,6.03,13.6,10.05,22.67h-20.19ZM336.6,133.94c-.91,6.35-1.78,9.18-4.13,12.31-3.35,4.57-8.66,6.91-13.62,6.79-13.08-.34-17.91-14.95-17.92-26.36-.01-11.19,4.13-26.43,17.31-26.75,4.92-.12,9.88,2.31,13.27,6.79,2.22,2.92,3.22,4.87,4.44,11.4h2.04c0-9.44.09-14.7.39-18.71h-2.09c-.3,3.61-1,5.39-2.26,5.39-.48,0-1.04-.3-1.74-.87-3.57-3-7.49-5.61-13.7-5.79-15.77-.45-25.98,14.62-26.54,28.89-.59,15.26,11.03,27.93,26.45,27.8,6.69-.06,10.7-2.7,14.44-5.79.7-.57,1.26-.87,1.78-.87,1.22,0,1.91,1.78,2.22,5.39h2.04c-.26-4.18-.35-9.7-.35-19.62h-2.04ZM401.9,151.78c-2.78-1.09-4.92-2.83-6.96-5.44-6.55-8.27-13.11-16.53-19.66-24.8,5.62-5.62,8.43-8.43,14.05-14.05,4.57-4.35,6.61-5.61,10.88-6.4v-1.7c-1.7.17-3.92.26-6.31.26-3.13,0-7.31-.09-10.53-.26v1.7c3.57.09,5.26,1.31,5.26,3.05,0,1.17-.78,2.57-2.31,4-4.25,4.33-6.37,6.5-10.62,10.83-4.79,4.61-8.09,5.74-11.96,6v-16.14c0-6.53,1.17-7.4,7.22-7.66v-1.78c-2.74.17-7.22.26-11.31.26-4.61,0-8.92-.09-11.4-.26v1.78c6.05.26,7.22,1.13,7.22,7.66v35.28c0,6.48-1.17,7.4-7.22,7.66v1.78c2.48-.17,6.79-.26,11.4-.26,4.09,0,8.57.09,11.31.26v-1.78c-6.05-.26-7.22-1.17-7.22-7.66v-17.66c4.83.17,6.83,1.61,9.18,4.83,4.75,6.59,7.13,9.89,11.88,16.49.7.91,1.13,1.7,1.13,2.26,0,1.09-1.39,1.61-5.35,1.74v1.78c5.26-.26,8.92-.26,11.35-.26,2.92,0,7.09.09,9.96.26v-1.78ZM405.81,99.4v1.78c6.05.26,7.22,1.13,7.22,7.66v31.8c0,12.31-.38,16.67-1.52,20.4-1.42,4.65-4.13,7.48-8.4,7.48-.87,0-1.87-.09-2.39-.17,1.35-.78,2.31-2.39,2.31-3.92,0-2.39-2.04-4.26-4.35-4.26-2.44,0-4.31,1.87-4.31,4.26,0,2.04,1.03,3.39,2.44,4.26,1.69,1.05,3.92,1.44,5.96,1.44,9.44,0,15.14-6.14,17.01-14.36,1.35-5.96,1.52-15.83,1.52-23.23v-23.71c0-6.53,1.17-7.4,7.22-7.66v-1.78c-2.78.17-7.22.26-11.31.26-4.66,0-8.92-.09-11.4-.26ZM479.55,146.08c-6.95-15.7-13.89-31.41-20.84-47.11h-1.44c-6.55,14.85-13.11,29.7-19.66,44.55-1.78,4.09-3.92,7.4-7.31,8.27v1.78c1.52-.17,5.7-.26,7.74-.26,3.22,0,6.31.09,8.09.26v-1.78c-4.87-.39-6.92-2.22-6.92-5.26,0-1.61.52-3.48,1.48-5.7,1.2-2.66,1.8-3.99,3-6.66h21.75c1.79,4.05,2.69,6.08,4.48,10.14.83,1.78,1.22,3.17,1.22,4.22,0,2.39-2.13,3.09-6.39,3.26v1.78c2.52-.17,6.79-.26,11.44-.26,3.35,0,7.09.09,9.53.26v-1.78c-1.87-.09-4.22-1.26-6.18-5.7ZM444.49,132.38c4.05-9.07,6.08-13.6,10.14-22.67,4.02,9.07,6.03,13.6,10.05,22.67h-20.19ZM533.67,133.94c-.91,6.35-1.78,9.18-4.13,12.31-3.35,4.57-8.66,6.91-13.62,6.79-13.08-.34-17.91-14.95-17.92-26.36-.01-11.19,4.13-26.43,17.31-26.75,4.92-.12,9.88,2.31,13.27,6.79,2.22,2.92,3.22,4.87,4.44,11.4h2.04c0-9.44.09-14.7.39-18.71h-2.09c-.3,3.61-1,5.39-2.26,5.39-.48,0-1.04-.3-1.74-.87-3.57-3-7.49-5.61-13.7-5.79-15.77-.45-25.98,14.62-26.54,28.89-.59,15.26,11.03,27.93,26.45,27.8,6.69-.06,10.7-2.7,14.44-5.79.7-.57,1.26-.87,1.78-.87,1.22,0,1.91,1.78,2.22,5.39h2.04c-.26-4.18-.35-9.7-.35-19.62h-2.04ZM592.13,144.35c-6.68-7.66-13.25-15.42-19.71-23.26,5.62-5.89,8.42-8.9,14.01-15.06,4.55-4.79,6.59-6.3,10.84-7.68,0-.68,0-1.02,0-1.7-1.69.41-3.91.78-6.3,1.05-3.13.35-7.31.65-10.53.71,0,.68,0,1.02,0,1.7,3.57-.17,5.27.88,5.27,2.62,0,1.18-.77,2.65-2.29,4.21-4.23,4.7-6.34,7-10.59,11.55-4.78,4.85-8.11,6.06-12,6.39,0-6.46-.01-9.69-.02-16.16,0-6.53,1.17-7.39,7.22-7.87,0-.71,0-1.07,0-1.79-2.74.27-7.22.48-11.32.53-4.61.06-8.92-.03-11.4-.2v1.78c6.05.26,7.22,1.11,7.22,7.64,0,11.76,0,23.52,0,35.29,0,6.48-1.19,7.4-7.23,7.67v1.78c2.48-.17,6.79-.25,11.44-.29,4.12-.03,8.64-.03,11.41.06,0-.71,0-1.07,0-1.79-6.1-.08-7.29-1.02-7.29-7.51,0-7.07-.01-10.61-.02-17.68,4.85.09,6.87,1.45,9.23,4.59,4.79,6.43,7.2,9.61,11.97,15.86.7.86,1.14,1.61,1.14,2.18,0,1.09-1.38,1.76-5.35,2.13,0,.72,0,1.07,0,1.79,5.28-.58,8.91-.95,11.33-1.22,2.89-.32,6.99-.81,9.78-1.11v-1.78c-2.71-.62-4.81-2.07-6.84-4.43Z" style="fill: url(#linear-gradient-7); stroke-width: 0px;"/>
    <g>
      <path d="M292.93,54.21c.23,4.72,2.28,5.95,7.39,5.7l.08,1.55c-2.02.03-6.21.02-10.21.21-4.57.23-9.06.66-11.33.85l-.08-1.55c4.86-.24,7.75-1.65,7.52-6.44l-.88-17.86c-.35-7.06-2.3-7.86-8.96-7.53l-.08-1.62c7.09-.5,11.4-1.68,15.01-4.5l1.54,31.19Z" style="fill: #fff; stroke-width: 0px;"/>
      <path d="M341.31,39.77c.58,11.81-6.51,21.04-17.63,21.59-10.26.51-18.24-6.72-18.82-18.6-.58-11.67,6.37-20.93,17.67-21.49,10.37-.51,18.21,6.79,18.78,18.5ZM312.01,42.19c.65,13.25,6.17,18.11,12.29,17.8,6.34-.31,10.49-7.63,9.9-19.66-.65-13.18-6.16-18.03-12.28-17.73-6.34.31-10.49,7.56-9.9,19.58Z" style="fill: #fff; stroke-width: 0px;"/>
      <path d="M364.49,50.68c.23,4.72,2.28,5.95,7.39,5.7l.08,1.55c-2.02.03-6.21.02-10.21.21-4.57.23-9.06.66-11.33.85l-.08-1.55c4.86-.24,7.75-1.65,7.52-6.44l-.88-17.86c-.35-7.06-2.3-7.86-8.96-7.54l-.08-1.62c7.09-.5,11.4-1.68,15.01-4.5l1.54,31.19Z" style="fill: #fff; stroke-width: 0px;"/>
      <path d="M412.88,36.23c.58,11.81-6.51,21.04-17.63,21.59-10.26.51-18.24-6.72-18.82-18.6-.58-11.67,6.37-20.93,17.67-21.49,10.37-.51,18.21,6.79,18.78,18.5ZM383.58,38.65c.65,13.25,6.17,18.11,12.29,17.81,6.34-.31,10.49-7.63,9.9-19.66-.65-13.18-6.16-18.03-12.28-17.73-6.34.31-10.49,7.56-9.9,19.58Z" style="fill: #fff; stroke-width: 0px;"/>
      <path d="M436.06,47.15c.23,4.72,2.28,5.95,7.39,5.7l.08,1.55c-2.02.03-6.21.02-10.21.21-4.57.23-9.06.66-11.33.85l-.08-1.55c4.86-.24,7.75-1.65,7.52-6.44l-.88-17.86c-.35-7.06-2.3-7.86-8.96-7.54l-.08-1.62c7.09-.49,11.4-1.68,15.01-4.5l1.54,31.19Z" style="fill: #fff; stroke-width: 0px;"/>
    </g>
  </g>
</svg>